<svg width="93" height="29" viewBox="0 0 93 29" fill="none" xmlns="http://www.w3.org/2000/svg">
<path d="M0 16.9885L7.0533 9.61835L12.2692 15.0262L10.4614 16.9885L9.91315 16.4323L8.40172 17.9929L10.8615 20.5887H13.8843L11.0541 17.5911L12.8619 15.6597L25.5163 28.855H11.3949L0 16.9885Z" fill="black"/>
<path d="M27.3835 11.857L20.3154 19.2367L15.1144 13.8177L16.9221 11.857L17.4556 12.4282L18.9818 10.8689L16.522 8.25973H13.4992L16.3294 11.2548L14.5068 13.2001L1.86719 0H15.9738L27.3835 11.857Z" fill="url(#paint0_linear_2959_5102)"/>
<path d="M39.7625 13.9314L38.8865 17.7339H33.4688L37.8808 1.51427C38.1079 0.639354 38.8217 0.0672913 39.6651 0.0672913H44.5314C45.4074 0.0672913 46.1211 0.639354 46.3157 1.51427L50.7278 17.7339H45.31L44.4341 13.9314H39.7625ZM42.7147 6.25903C42.5849 5.61966 42.4551 4.87935 42.4227 4.23998H41.7414C41.6765 4.87935 41.5792 5.61966 41.4494 6.25903L40.606 10.0279H43.5257L42.7147 6.25903Z" fill="black"/>
<path d="M57.1195 12.4171C57.1195 12.9555 57.5088 13.3257 58.1576 13.3257H63.8674L64.1269 17.4647C61.5965 17.8349 58.6118 17.8349 55.8218 17.8349C53.3563 17.8349 51.7666 16.186 51.7666 13.8305V0.100952H57.1195V12.4171Z" fill="black"/>
<path d="M78.2708 17.4984C75.8052 17.8349 72.3664 17.8349 69.4142 17.8349C67.0784 17.8349 65.4238 16.186 65.4238 13.8304V4.00444C65.4238 1.61523 67.0784 0 69.4142 0C72.3339 0 75.8052 -2.08288e-08 78.2708 0.336507L78.0113 4.23999H71.7824C71.166 4.23999 70.7767 4.61015 70.7767 5.14856V6.86475H77.1353V10.5663H70.7767V12.6863C70.7767 13.2247 71.166 13.5949 71.7824 13.5949H78.0113L78.2708 17.4984Z" fill="black"/>
<path d="M86.5766 4.23999C85.8953 4.23999 85.506 4.61015 85.506 5.14856V7.2349H91.6051V10.9028H85.5384V17.7339H80.1855V4.00444C80.1855 1.61523 81.8725 0 84.2408 0C87.0632 0 90.4696 -4.16577e-08 92.8054 0.370158L92.5459 4.27364H86.5766V4.23999Z" fill="black"/>
<path d="M33.5654 25.2259C33.8881 25.1878 34.243 25.1878 34.6302 25.1878C35.5014 25.1878 35.8241 25.6834 35.8241 27.0939C35.8241 28.5044 35.5014 29 34.6302 29C34.2108 29 33.8558 28.9619 33.5654 28.9619V25.2259ZM33.8558 28.6188C34.0817 28.6188 34.3398 28.6188 34.6302 28.6188C35.2756 28.6188 35.5014 28.1994 35.5014 27.0558C35.5014 25.9121 35.2756 25.4547 34.6302 25.4547C34.3398 25.4547 34.0817 25.4547 33.8558 25.4547V28.6188Z" fill="black"/>
<path d="M41.309 28.8851C40.8895 28.9232 40.4055 28.9232 39.986 28.9232C39.6634 28.9232 39.4375 28.6945 39.4375 28.3133V25.8354C39.4375 25.4541 39.6634 25.2254 39.986 25.2254C40.4378 25.2254 40.8895 25.2254 41.309 25.2635L41.2767 25.5304H40.0183C39.8247 25.5304 39.7279 25.6447 39.7279 25.9116V26.8265H41.1154V27.0934H39.7279V28.237C39.7279 28.5039 39.8247 28.6183 40.0183 28.6183H41.2767L41.309 28.8851Z" fill="black"/>
<path d="M46.0518 28.8089C46.0195 28.8851 45.9872 28.9232 45.9227 28.9232H45.6C45.5355 28.9232 45.5032 28.8851 45.471 28.8089L44.4707 25.2254H44.7934L45.6 28.237C45.6323 28.3895 45.6646 28.5039 45.6968 28.6564H45.8259C45.8582 28.542 45.8904 28.3895 45.9227 28.237L46.7294 25.2254H47.052L46.0518 28.8089Z" fill="black"/>
<path d="M52.3129 28.8851C51.8934 28.9232 51.4094 28.9232 50.9899 28.9232C50.6673 28.9232 50.4414 28.6945 50.4414 28.3133V25.8354C50.4414 25.4541 50.6673 25.2254 50.9899 25.2254C51.4417 25.2254 51.8934 25.2254 52.3129 25.2635L52.2806 25.5304H51.0222C50.8286 25.5304 50.7318 25.6447 50.7318 25.9116V26.8265H52.1193V27.0934H50.7318V28.237C50.7318 28.5039 50.8286 28.6183 51.0222 28.6183H52.2806L52.3129 28.8851Z" fill="black"/>
<path d="M56.1518 28.1989C56.1518 28.4658 56.2808 28.5801 56.4744 28.5801H57.636V28.847C57.2488 28.8851 56.8294 28.8851 56.4099 28.8851C56.0227 28.8851 55.8291 28.6182 55.8291 28.237V25.1873H56.1195V28.1989H56.1518Z" fill="black"/>
<path d="M63.25 27.0552C63.25 28.4657 62.9274 28.9613 62.0562 28.9613C61.185 28.9613 60.8623 28.4657 60.8623 27.0552C60.8623 25.6447 61.185 25.1491 62.0562 25.1491C62.9274 25.1491 63.25 25.6447 63.25 27.0552ZM61.1527 27.0552C61.1527 28.237 61.3786 28.6563 62.0562 28.6563C62.7338 28.6563 62.9596 28.237 62.9596 27.0552C62.9596 25.8735 62.7338 25.4541 62.0562 25.4541C61.3786 25.4541 61.1527 25.8735 61.1527 27.0552Z" fill="black"/>
<path d="M66.8643 25.2254C67.1869 25.1873 67.4128 25.1873 67.8968 25.1873C68.6066 25.1873 68.8648 25.416 68.8648 26.3309C68.8648 27.2077 68.6066 27.4746 67.929 27.4746C67.6064 27.4746 67.3483 27.4365 67.1547 27.4365V28.9613H66.8643V25.2254ZM67.8968 27.1315C68.3808 27.1315 68.5744 26.979 68.5744 26.2928C68.5744 25.6447 68.413 25.4541 67.8968 25.4541C67.6064 25.4541 67.316 25.4541 67.1547 25.4541V27.0934H67.8968V27.1315Z" fill="black"/>
<path d="M75.2859 25.2254C75.3827 25.2254 75.4149 25.3016 75.4149 25.3779L75.544 28.9232H75.2536L75.1245 25.5304H75.0277L74.2211 28.4276C74.1888 28.5039 74.1565 28.542 74.092 28.542H73.8016C73.7371 28.542 73.6725 28.5039 73.6725 28.4276L72.8659 25.5304H72.7691L72.64 28.9232H72.3496L72.4787 25.3779C72.4787 25.2635 72.5109 25.2254 72.6077 25.2254H72.9627C73.0272 25.2254 73.0595 25.2635 73.0917 25.3398L73.7693 27.7414C73.8016 27.8939 73.8661 28.0845 73.8984 28.237H73.9952C74.0275 28.0845 74.092 27.8939 74.1243 27.7414L74.8019 25.3398C74.8341 25.2635 74.8664 25.2254 74.9309 25.2254H75.2859Z" fill="black"/>
<path d="M81.0619 28.8851C80.6424 28.9232 80.1584 28.9232 79.739 28.9232C79.4163 28.9232 79.1904 28.6945 79.1904 28.3133V25.8354C79.1904 25.4541 79.4163 25.2254 79.739 25.2254C80.1907 25.2254 80.6424 25.2254 81.0619 25.2635L81.0296 25.5304H79.7712C79.5776 25.5304 79.4808 25.6447 79.4808 25.9116V26.8265H80.8683V27.0934H79.4808V28.237C79.4808 28.5039 79.5776 28.6183 79.7712 28.6183H81.0296L81.0619 28.8851Z" fill="black"/>
<path d="M86.9335 28.7326C86.9335 28.847 86.9013 28.8851 86.8045 28.8851H86.4818C86.4173 28.8851 86.3527 28.847 86.3527 28.7707L85.1589 25.9878C85.0943 25.8735 85.0298 25.6829 84.9975 25.5304H84.9008C84.9008 25.6829 84.9008 25.8354 84.9008 25.9878V28.8851H84.6104V25.3398C84.6104 25.2254 84.6426 25.1873 84.7394 25.1873H85.0621C85.1266 25.1873 85.1912 25.2254 85.1912 25.3017L86.3527 28.0464C86.4173 28.1989 86.4818 28.3895 86.5464 28.542H86.6431C86.6431 28.3514 86.6431 28.1989 86.6431 28.0083V25.1873H86.9335V28.7326Z" fill="black"/>
<path d="M91.6774 25.5304V28.9232H91.387V25.5304H90.3545V25.2254H92.7422V25.5304H91.6774Z" fill="black"/>
<path d="M92.9997 21.9553H33.3066V22.6304H92.9997V21.9553Z" fill="black"/>
<defs>
<linearGradient id="paint0_linear_2959_5102" x1="14.6212" y1="19.2336" x2="14.6212" y2="0.00392222" gradientUnits="userSpaceOnUse">
<stop stop-color="#2B5972"/>
<stop offset="1" stop-color="#427FA2"/>
</linearGradient>
</defs>
</svg>
